<mxfile host="app.diagrams.net" modified="2022-07-30T16:10:24.436Z" agent="5.0 (Windows NT 10.0; Win64; x64) AppleWebKit/537.36 (KHTML, like Gecko) Chrome/103.0.0.0 Safari/537.36" etag="zK6Kce8QxEkDzYEfStay" version="20.1.4" type="github">
  <diagram id="V5y0tua38hWlKZtvBQ_e" name="Страница 1">
    <mxGraphModel dx="1038" dy="539" grid="1" gridSize="10" guides="1" tooltips="1" connect="1" arrows="1" fold="1" page="1" pageScale="1" pageWidth="827" pageHeight="1169" math="0" shadow="0">
      <root>
        <mxCell id="0" />
        <mxCell id="1" parent="0" />
        <mxCell id="rwYfhNdILJzP6k78M6Nl-3" style="edgeStyle=orthogonalEdgeStyle;rounded=0;orthogonalLoop=1;jettySize=auto;html=1;entryX=0;entryY=0.5;entryDx=0;entryDy=0;startArrow=classic;startFill=0;endArrow=classic;endFill=0;" edge="1" parent="1" source="rwYfhNdILJzP6k78M6Nl-1" target="rwYfhNdILJzP6k78M6Nl-2">
          <mxGeometry relative="1" as="geometry" />
        </mxCell>
        <mxCell id="rwYfhNdILJzP6k78M6Nl-6" style="edgeStyle=orthogonalEdgeStyle;rounded=0;orthogonalLoop=1;jettySize=auto;html=1;entryX=0.5;entryY=0;entryDx=0;entryDy=0;startArrow=classic;startFill=0;endArrow=classic;endFill=0;" edge="1" parent="1" source="rwYfhNdILJzP6k78M6Nl-1" target="rwYfhNdILJzP6k78M6Nl-4">
          <mxGeometry relative="1" as="geometry" />
        </mxCell>
        <mxCell id="rwYfhNdILJzP6k78M6Nl-1" value="OpenVpn&lt;br&gt;клиент" style="rounded=1;whiteSpace=wrap;html=1;fillColor=#B9E0A5;" vertex="1" parent="1">
          <mxGeometry x="40" y="20" width="120" height="60" as="geometry" />
        </mxCell>
        <mxCell id="rwYfhNdILJzP6k78M6Nl-10" style="rounded=0;orthogonalLoop=1;jettySize=auto;html=1;startArrow=classic;startFill=0;endArrow=classic;endFill=0;" edge="1" parent="1" source="rwYfhNdILJzP6k78M6Nl-2" target="rwYfhNdILJzP6k78M6Nl-9">
          <mxGeometry relative="1" as="geometry" />
        </mxCell>
        <mxCell id="rwYfhNdILJzP6k78M6Nl-11" style="rounded=0;orthogonalLoop=1;jettySize=auto;html=1;startArrow=classic;startFill=0;endArrow=classic;endFill=0;" edge="1" parent="1" source="rwYfhNdILJzP6k78M6Nl-2" target="rwYfhNdILJzP6k78M6Nl-8">
          <mxGeometry relative="1" as="geometry" />
        </mxCell>
        <mxCell id="rwYfhNdILJzP6k78M6Nl-12" style="rounded=0;orthogonalLoop=1;jettySize=auto;html=1;startArrow=classic;startFill=0;endArrow=classic;endFill=0;" edge="1" parent="1" source="rwYfhNdILJzP6k78M6Nl-2" target="rwYfhNdILJzP6k78M6Nl-7">
          <mxGeometry relative="1" as="geometry" />
        </mxCell>
        <mxCell id="rwYfhNdILJzP6k78M6Nl-2" value="OpenVpn&lt;br&gt;сервер" style="rounded=1;whiteSpace=wrap;html=1;fillColor=#FFD966;" vertex="1" parent="1">
          <mxGeometry x="280" y="20" width="120" height="60" as="geometry" />
        </mxCell>
        <mxCell id="rwYfhNdILJzP6k78M6Nl-4" value="Computer&lt;br&gt;with limited rights" style="rounded=0;whiteSpace=wrap;html=1;fillColor=#e1d5e7;strokeColor=#9673a6;" vertex="1" parent="1">
          <mxGeometry x="40" y="160" width="120" height="60" as="geometry" />
        </mxCell>
        <mxCell id="rwYfhNdILJzP6k78M6Nl-5" value="" style="endArrow=none;html=1;rounded=0;" edge="1" parent="1">
          <mxGeometry width="50" height="50" relative="1" as="geometry">
            <mxPoint x="220" y="250" as="sourcePoint" />
            <mxPoint x="220" y="10" as="targetPoint" />
          </mxGeometry>
        </mxCell>
        <mxCell id="rwYfhNdILJzP6k78M6Nl-7" value="Resource 1" style="rounded=1;whiteSpace=wrap;html=1;fillColor=#DAE8FC;" vertex="1" parent="1">
          <mxGeometry x="520" y="20" width="120" height="60" as="geometry" />
        </mxCell>
        <mxCell id="rwYfhNdILJzP6k78M6Nl-8" value="Resource 2" style="rounded=1;whiteSpace=wrap;html=1;fillColor=#DAE8FC;" vertex="1" parent="1">
          <mxGeometry x="480" y="120" width="120" height="60" as="geometry" />
        </mxCell>
        <mxCell id="rwYfhNdILJzP6k78M6Nl-9" value="Resource 3" style="rounded=1;whiteSpace=wrap;html=1;fillColor=#DAE8FC;" vertex="1" parent="1">
          <mxGeometry x="410" y="220" width="120" height="60" as="geometry" />
        </mxCell>
      </root>
    </mxGraphModel>
  </diagram>
</mxfile>
